<svg xmlns="http://www.w3.org/2000/svg" xmlns:xlink="http://www.w3.org/1999/xlink" id="Layer_1" x="0px" y="0px" viewBox="0 0 460 201" style="enable-background:new 0 0 460 201;" xml:space="preserve"><style type="text/css">	.st0{fill:#F2A400;}	.st1{fill:#267246;}	.st2{fill:#FFFFFF;}	.st3{fill-rule:evenodd;clip-rule:evenodd;fill:#267246;}</style><polygon class="st0" points="331.5,40.9 332.4,192.4 450.9,117.1 "></polygon><path class="st1" d="M347.6,79c21.2,0.1,38.3,17.1,38.2,37.9c-0.1,20.9-17.3,37.7-38.5,37.6c-21.2-0.1-38.3-17.1-38.2-37.9 C309.2,95.7,326.4,78.9,347.6,79z"></path><path class="st2" d="M324.6,105c22.8,0.1,43.6,8.4,59.7,22.1c0.5-1.8,0.9-3.7,1.2-5.7c-16.6-13.4-37.8-21.5-60.9-21.6 c-4,0-7.9,0.2-11.8,0.7c-0.8,1.7-1.5,3.5-2.1,5.4C315.3,105.3,319.9,105,324.6,105z"></path><polygon class="st3" points="34.1,136.4 34.1,124.5 61.6,124.5 61.6,107.7 34.1,107.7 34.1,97.1 66.2,97.1 66.2,79 13.3,79  13.3,154.5 67.2,154.5 67.2,136.4 "></polygon><polygon class="st3" points="134.4,154.5 134.4,136.4 100.1,136.4 100.1,79 79.3,79 79.3,154.5 "></polygon><polygon class="st3" points="164,136.4 164,124.5 191.4,124.5 191.4,107.7 164,107.7 164,97.1 196.1,97.1 196.1,79 143.2,79  143.2,154.5 197.1,154.5 197.1,136.4 "></polygon><rect x="209.2" y="79" class="st3" width="20.8" height="75.6"></rect><polyline class="st3" points="260.1,79 239.9,79 239.9,97.1 261.8,97.1 261.8,154.5 282.5,154.5 282.5,97.1 304.2,97.1 304.2,79  260.1,79 "></polyline><path class="st3" d="M19.2,27.9h14.1c1.2,0,2.4,0.3,3.5,0.8c1.1,0.5,2.1,1.3,2.9,2.2c0.8,0.9,1.5,2,2,3.3c0.5,1.3,0.7,2.6,0.7,4 c0,1.4-0.2,2.7-0.7,3.9c-0.4,1.3-1,2.3-1.8,3.3c-0.8,1-1.7,1.7-2.8,2.3c-1.1,0.6-2.3,0.9-3.6,0.9H19.2V27.9z M19.2,69.2V52.5h14.7 c1.9,0,3.7-0.4,5.3-1.2c1.6-0.8,3-1.8,4.1-3.2c1.2-1.3,2-2.8,2.7-4.6c0.6-1.7,1-3.5,1-5.4c0-1.7-0.3-3.5-1-5.2 c-0.7-1.7-1.6-3.2-2.8-4.6c-1.2-1.3-2.6-2.4-4.2-3.2c-1.7-0.8-3.4-1.2-5.4-1.2H14.7v45.3H19.2z"></path><path class="st3" d="M58,39.7c0.8-2.3,1.9-4.3,3.3-6.1c1.5-1.8,3.2-3.2,5.3-4.3c2.1-1.1,4.4-1.6,7-1.6c2.5,0,4.7,0.5,6.8,1.6 c2,1,3.8,2.4,5.3,4.2c1.5,1.7,2.7,3.8,3.5,6c0.8,2.3,1.2,4.7,1.2,7.1c0,2.3-0.4,4.6-1.2,6.9s-1.9,4.3-3.3,6.1 c-1.5,1.8-3.2,3.2-5.3,4.3c-2.1,1.1-4.4,1.6-7,1.6c-2.5,0-4.8-0.5-6.8-1.6c-2-1-3.8-2.4-5.3-4.2C60,58,58.8,56,58,53.7 c-0.8-2.3-1.2-4.6-1.2-7.1C56.8,44.2,57.2,41.9,58,39.7z M82,67.7c2.6-1.2,4.8-2.9,6.7-5c1.9-2.1,3.4-4.6,4.5-7.3 c1.1-2.8,1.6-5.7,1.6-8.7c0-2.8-0.5-5.7-1.5-8.4c-1-2.7-2.5-5.2-4.3-7.4c-1.9-2.2-4.1-3.9-6.7-5.3c-2.6-1.3-5.5-2-8.7-2 c-3,0-5.8,0.6-8.4,1.9c-2.6,1.3-4.8,2.9-6.8,5.1c-1.9,2.1-3.4,4.6-4.5,7.4s-1.6,5.7-1.6,8.7c0,2.9,0.5,5.7,1.5,8.5 c1,2.8,2.5,5.2,4.3,7.4c1.9,2.2,4.1,3.9,6.7,5.2c2.6,1.3,5.5,1.9,8.6,1.9C76.6,69.5,79.4,68.9,82,67.7z"></path><polygon class="st3" points="135.2,69.2 135.2,65.3 109,65.3 109,23.9 104.5,23.9 104.5,69.2 "></polygon><path class="st3" d="M151.1,10.7h-4.6l-3.8,5.9l2.9,1.1L151.1,10.7z M147.5,69.2V23.9H143v45.3H147.5z"></path><polygon class="st3" points="192.5,23.9 155.7,23.9 155.7,27.9 171.8,27.9 171.8,69.2 176.3,69.2 176.3,27.9 192.5,27.9 "></polygon><rect x="200.9" y="23.9" class="st3" width="4.5" height="45.3"></rect><path class="st3" d="M216.7,54.8c1,2.8,2.5,5.3,4.4,7.5c1.9,2.2,4.1,4,6.7,5.3c2.6,1.4,5.5,2,8.6,2c1.7,0,3.5-0.2,5.3-0.7 c1.8-0.5,3.5-1.1,5.1-2c1.6-0.9,3.1-2,4.4-3.3c1.3-1.3,2.3-2.8,3.1-4.5l-3.7-1.9c-0.7,1.5-1.6,2.8-2.7,3.8c-1.1,1-2.2,1.9-3.5,2.6 s-2.6,1.2-3.9,1.5c-1.3,0.3-2.7,0.5-3.9,0.5c-2.4,0-4.7-0.5-6.8-1.6c-2.1-1-3.8-2.5-5.4-4.2c-1.5-1.8-2.7-3.8-3.6-6.1 c-0.9-2.3-1.3-4.7-1.3-7.2c0-2.3,0.3-4.5,1.1-6.8c0.7-2.2,1.8-4.2,3.2-6c1.4-1.8,3.2-3.2,5.3-4.3c2.1-1.1,4.5-1.7,7.2-1.7 c1.2,0,2.5,0.1,3.8,0.4c1.3,0.3,2.5,0.7,3.7,1.4c1.2,0.6,2.3,1.5,3.4,2.5c1,1,1.9,2.3,2.6,3.8l3.5-2.2c-1.4-2.9-3.5-5.3-6.4-7.2 c-2.9-1.8-6.3-2.7-10.4-2.7c-3.4,0-6.5,0.7-9.1,2c-2.7,1.3-4.9,3.1-6.8,5.2c-1.8,2.1-3.2,4.6-4.2,7.2c-1,2.7-1.4,5.4-1.4,8.2 C215.2,49.1,215.7,52,216.7,54.8z"></path><path class="st3" d="M265.7,39.7c0.8-2.3,1.9-4.3,3.3-6.1c1.5-1.8,3.2-3.2,5.3-4.3c2.1-1.1,4.4-1.6,7-1.6c2.5,0,4.7,0.5,6.8,1.6 c2,1,3.8,2.4,5.3,4.2c1.5,1.7,2.7,3.8,3.5,6c0.8,2.3,1.2,4.7,1.2,7.1c0,2.3-0.4,4.6-1.2,6.9c-0.8,2.3-1.9,4.3-3.3,6.1 c-1.5,1.8-3.2,3.2-5.3,4.3c-2.1,1.1-4.4,1.6-7,1.6c-2.5,0-4.8-0.5-6.8-1.6c-2-1-3.8-2.4-5.3-4.2c-1.5-1.8-2.7-3.8-3.4-6.1 c-0.8-2.3-1.2-4.6-1.2-7.1C264.6,44.2,264.9,41.9,265.7,39.7z M289.8,67.7c2.6-1.2,4.8-2.9,6.7-5c1.9-2.1,3.4-4.6,4.5-7.3 c1.1-2.8,1.6-5.7,1.6-8.7c0-2.8-0.5-5.7-1.5-8.4c-1-2.7-2.5-5.2-4.3-7.4c-1.9-2.2-4.1-3.9-6.7-5.3c-2.6-1.3-5.5-2-8.7-2 c-3,0-5.8,0.6-8.4,1.9c-2.6,1.3-4.8,2.9-6.8,5.1c-1.9,2.1-3.4,4.6-4.5,7.4c-1.1,2.8-1.6,5.7-1.6,8.7c0,2.9,0.5,5.7,1.5,8.5 c1,2.8,2.5,5.2,4.4,7.4c1.9,2.2,4.1,3.9,6.7,5.2c2.6,1.3,5.5,1.9,8.7,1.9C284.4,69.5,287.2,68.9,289.8,67.7z"></path></svg>